{"title":"Geralds Game 2017 1080p Bluray x264[MovieDunya]","magnet":"magnet:?xt=urn:btih:394bda24cff9e8bf5f8c404cde56b42ec602caa0&dn=Geralds+Game+2017+1080p+Bluray+x264%5BMovieDunya%5D&tr=udp%3A%2F%2Ftracker.leechers-paradise.org%3A6969&tr=udp%3A%2F%2Fzer0day.ch%3A1337&tr=udp%3A%2F%2Fopen.demonii.com%3A1337&tr=udp%3A%2F%2Ftracker.coppersurfer.tk%3A6969&tr=udp%3A%2F%2Fexodus.desync.com%3A6969","uploader":"MDunya","categoryP":"video","categoryS":"hd___movies","size":"2058507006","seeders":"9","leechers":"6","description":"General\r\nFormat : Matroska\r\nFormat version : Version 4 / Version 2\r\nFile size : 1.92 GiB\r\nDuration : 1 h 43 min\r\nOverall bit rate : 2 654 kb/s\r\nMovie name : Gerald&apos;s Game 1080p BluRay[MovieDunya]\r\nEncoded date : UTC 2018-07-14 05:55:46\r\nWriting application : mkvmerge v24.0.0 (&apos;Beyond The Pale&apos;) 64-bit\r\nWriting library : libebml v1.3.6 + libmatroska v1.4.9\r\n\r\nVideo\r\nID : 1\r\nFormat : AVC\r\nFormat/Info : Advanced Video Codec\r\nFormat profile : High@L4.1\r\nFormat settings : CABAC / 6 Ref Frames\r\nFormat settings, CABAC : Yes\r\nFormat settings, RefFrames : 6 frames\r\nCodec ID : V_MPEG4/ISO/AVC\r\nDuration : 1 h 43 min\r\nBit rate : 2 400 kb/s\r\nWidth : 1 920 pixels\r\nHeight : 800 pixels\r\nDisplay aspect ratio : 2.40:1\r\nFrame rate mode : Constant\r\nFrame rate : 60.000 FPS\r\nColor space : YUV\r\nChroma subsampling : 4:2:0\r\nBit depth : 8 bits\r\nScan type : Progressive\r\nBits/(Pixel*Frame) : 0.026\r\nStream size : 1.73 GiB (90%)\r\nTitle : Gerald&apos;s Game 1080p BluRay[MovieDunya]\r\nWriting library : x264 core 155 r2901 7d0ff22\r\nDefault : Yes\r\nForced : No\r\nColor range : Limited\r\nColor primaries : BT.601 NTSC\r\nTransfer characteristics : BT.709\r\nMatrix coefficients : BT.601\r\n\r\nAudio\r\nID : 2\r\nFormat : AAC\r\nFormat/Info : Advanced Audio Codec\r\nFormat profile : LC\r\nCodec ID : A_AAC-2\r\nDuration : 1 h 43 min\r\nBit rate : 256 kb/s\r\nChannel(s) : 2 channels\r\nChannel positions : Front: L R\r\nSampling rate : 48.0 kHz\r\nFrame rate : 46.875 FPS (1024 SPF)\r\nCompression mode : Lossy\r\nDelay relative to video : -21 ms\r\nStream size : 189 MiB (10%)\r\nTitle : Gerald&apos;s Game 1080p BluRay[MovieDunya]\r\nDefault : Yes\r\nForced : No\r\n <a href=\"\nhttps://pichub.site/image/azlzb\" rel=\"nofollow\" target=\"_NEW\">\nhttps://pichub.site/image/azlzb</a> <a href=\"\nhttps://pichub.site/image/az5ay\" rel=\"nofollow\" target=\"_NEW\">\nhttps://pichub.site/image/az5ay</a> <a href=\"\nhttps://pichub.site/image/azpsp\" rel=\"nofollow\" target=\"_NEW\">\nhttps://pichub.site/image/azpsp</a> <a href=\"\nhttps://pichub.site/image/azou4\" rel=\"nofollow\" target=\"_NEW\">\nhttps://pichub.site/image/azou4</a> <a href=\"\nhttps://pichub.site/image/azrEt\" rel=\"nofollow\" target=\"_NEW\">\nhttps://pichub.site/image/azrEt</a>","last_updated":"2018-07-14T12:03:03.917Z","parsed":{"xt":"urn:btih:394bda24cff9e8bf5f8c404cde56b42ec602caa0","dn":"Geralds Game 2017 1080p Bluray x264[MovieDunya]","tr":["udp://exodus.desync.com:6969","udp://open.demonii.com:1337","udp://tracker.coppersurfer.tk:6969","udp://tracker.leechers-paradise.org:6969","udp://zer0day.ch:1337"],"infoHash":"394bda24cff9e8bf5f8c404cde56b42ec602caa0","infoHashBuffer":{"type":"Buffer","data":[57,75,218,36,207,249,232,191,95,140,64,76,222,86,180,46,198,2,202,160]},"name":"Geralds Game 2017 1080p Bluray x264[MovieDunya]","announce":["udp://exodus.desync.com:6969","udp://open.demonii.com:1337","udp://tracker.coppersurfer.tk:6969","udp://tracker.leechers-paradise.org:6969","udp://zer0day.ch:1337"],"urlList":[]}}